<?xml version="1.0" encoding="utf-8"?>
<!-- Generator: Adobe Illustrator 17.0.0, SVG Export Plug-In . SVG Version: 6.00 Build 0)  -->
<!DOCTYPE svg PUBLIC "-//W3C//DTD SVG 1.1//EN" "http://www.w3.org/Graphics/SVG/1.1/DTD/svg11.dtd">
<svg version="1.1" id="图层_1" xmlns="http://www.w3.org/2000/svg" xmlns:xlink="http://www.w3.org/1999/xlink" x="0px" y="0px"
	 width="514.89px" height="186.072px" viewBox="0 0 514.89 186.072" enable-background="new 0 0 514.89 186.072"
	 xml:space="preserve">
<g>
	<polygon fill="#B01E24" points="37.729,81.865 57.077,93.036 142.81,43.547 142.801,186.072 161.157,175.471 161.166,10.596 	"/>
	<polygon fill="#D65152" points="142.799,43.539 123.451,54.709 123.442,153.699 0,82.451 0.003,103.648 142.801,186.072 	"/>
	<polygon fill="#EB6A66" points="123.439,153.715 123.439,131.375 37.715,81.872 161.166,10.596 142.807,0 0,82.451 	"/>
</g>
<g>
	<polygon fill="#B01E24" points="391.453,81.865 410.801,93.036 496.533,43.547 496.525,186.072 514.882,175.471 514.89,10.596 	"/>
	<polygon fill="#D65152" points="496.523,43.539 477.176,54.709 477.167,153.699 353.725,82.451 353.728,103.648 496.525,186.072 	
		"/>
	<polygon fill="#EB6A66" points="477.164,153.715 477.164,131.375 391.44,81.872 514.89,10.596 496.531,0 353.725,82.451 	"/>
</g>
<g>
	<polygon fill="#D65152" points="264.676,27.914 207.047,60.474 264.676,93.035 	"/>
	<polygon fill="#EB6A66" points="264.675,93.035 207.047,125.595 264.675,158.156 	"/>
	<polygon fill="#B01E24" points="322.304,60.475 264.676,93.034 322.304,125.596 	"/>
	<polygon fill="#D65152" points="264.676,93.035 322.304,125.595 264.676,158.156 	"/>
	<polygon fill="#EB6A66" points="207.047,60.475 264.676,93.034 207.047,125.596 	"/>
	<polygon fill="#B01E24" points="264.676,27.914 322.304,60.474 264.676,93.035 	"/>
</g>
<g>
</g>
<g>
</g>
<g>
</g>
<g>
</g>
<g>
</g>
<g>
</g>
<g>
</g>
<g>
</g>
<g>
</g>
<g>
</g>
<g>
</g>
<g>
</g>
<g>
</g>
<g>
</g>
<g>
</g>
</svg>
