<?xml version="1.0" encoding="utf-8"?>
<!-- Generator: Adobe Illustrator 16.0.0, SVG Export Plug-In . SVG Version: 6.00 Build 0)  -->
<!DOCTYPE svg PUBLIC "-//W3C//DTD SVG 1.1//EN" "http://www.w3.org/Graphics/SVG/1.1/DTD/svg11.dtd">
<svg version="1.1" xmlns="http://www.w3.org/2000/svg" xmlns:xlink="http://www.w3.org/1999/xlink" x="0px" y="0px" width="512px"
	 height="512px" viewBox="0 0 512 512" enable-background="new 0 0 512 512" xml:space="preserve">
<g id="图层_1" display="none">
</g>
<g id="外框" display="none">
	<path display="inline" fill="#F7F8F8" d="M512,476c0,19.882-16.118,36-36,36H36c-19.882,0-36-16.118-36-36V36
		C0,16.118,16.118,0,36,0h440c19.882,0,36,16.118,36,36V476z"/>
</g>
<g id="参考线" display="none">
</g>
<g id="图层_3" display="none">
</g>
<g id="图层_4" display="none">
</g>
<g id="图层_5" display="none">
</g>
<g id="参考线_1_">
	<path fill="none" stroke="#000000" stroke-miterlimit="10" d="M46.184,134.864"/>
</g>
<g id="图层_7" display="none">
	<polygon display="inline" opacity="0.5" fill="#EC2C22" points="19.586,677.699 -22.865,653.714 19.586,629.729 	"/>
	<polygon display="inline" opacity="0.8" fill="#EA5514" points="300.889,279.669 258.438,255.684 300.889,231.699 	"/>
	<polygon display="inline" opacity="0.4" points="300.889,327.642 258.438,303.656 300.889,279.672 	"/>
	<polygon display="inline" opacity="0.8" fill="#EA5514" points="88.635,159.708 46.184,135.723 88.635,111.738 	"/>
	<polygon display="inline" opacity="0.4" fill="#EC2C22" points="88.635,255.685 46.184,231.699 88.635,207.715 	"/>
	<polygon display="inline" opacity="0.5" fill="#EC2C22" points="118.804,699.075 76.353,675.09 118.804,651.105 	"/>
	<polygon display="inline" opacity="0.4" fill="#EC2C22" points="258.438,303.654 215.986,279.669 258.438,255.684 	"/>
	<polygon display="inline" opacity="0.4" fill="#EC2C22" points="215.987,279.669 173.536,255.684 215.987,231.699 	"/>
	<polygon display="inline" opacity="0.4" fill="#EC2C22" points="173.536,255.685 131.084,231.7 173.536,207.715 	"/>
	<polygon display="inline" opacity="0.4" fill="#EC2C22" points="131.085,231.698 88.634,207.713 131.085,183.729 	"/>
	<polygon display="inline" opacity="0.4" fill="#EC2C22" points="88.635,207.713 46.184,183.729 88.635,159.744 	"/>
	<polygon display="inline" opacity="0.6" fill="#EC2C22" points="88.635,255.683 46.184,231.698 88.635,207.713 	"/>
	<polygon display="inline" opacity="0.4" fill="#EC2C22" points="88.635,303.654 46.184,279.67 88.635,255.684 	"/>
	<polygon display="inline" opacity="0.6" fill="#EC2C22" points="88.635,207.713 46.184,183.728 88.635,159.743 	"/>
	<polygon display="inline" opacity="0.4" fill="#EE7419" points="88.635,159.743 46.185,135.758 88.635,111.773 	"/>
	<polygon display="inline" opacity="0.4" fill="#EE7419" points="131.085,183.728 88.635,159.743 131.085,135.758 	"/>
	<polygon display="inline" opacity="0.4" fill="#EE7419" points="173.536,207.713 131.086,183.728 173.536,159.743 	"/>
	<polygon display="inline" opacity="0.4" fill="#EE7419" points="215.987,231.698 173.537,207.712 215.987,183.728 	"/>
	<polygon display="inline" opacity="0.4" fill="#EE7419" points="258.438,255.683 215.987,231.698 258.438,207.713 	"/>
	<polygon display="inline" opacity="0.45" fill="#EE7419" points="300.89,231.699 343.34,207.713 300.89,183.729 	"/>
	<polygon display="inline" fill="#EC2C22" points="-151.492,137.898 -127.507,95.448 -103.522,137.898 	"/>
	<polygon display="inline" opacity="0.8" fill="#EC2C22" points="46.184,135.758 88.635,159.743 46.184,183.728 	"/>
	<polygon display="inline" opacity="0.6" fill="#EC2C22" points="131.085,231.698 88.635,207.713 131.085,183.728 	"/>
	<polygon display="inline" opacity="0.55" fill="#EC2C22" points="88.635,159.743 131.085,183.728 88.635,207.713 	"/>
	<polygon display="inline" opacity="0.4" fill="#EC2C22" points="131.085,327.638 88.635,303.652 131.085,279.667 	"/>
	<polygon display="inline" opacity="0.55" fill="#EC2C22" points="88.635,255.683 131.085,279.667 88.635,303.652 	"/>
	<polygon display="inline" opacity="0.6" fill="#EC2C22" points="173.536,255.683 131.085,231.697 173.536,207.712 	"/>
	<polygon display="inline" opacity="0.55" fill="#EC2C22" points="131.085,183.728 173.536,207.713 131.085,231.698 	"/>
	<polygon display="inline" opacity="0.4" fill="#EC2C22" points="173.536,351.623 131.085,327.637 173.536,303.652 	"/>
	<polygon display="inline" opacity="0.55" fill="#EC2C22" points="131.085,279.668 173.536,303.652 131.085,327.637 	"/>
	<polygon display="inline" opacity="0.6" fill="#EC2C22" points="215.987,279.669 173.537,255.685 215.987,231.7 	"/>
	<polygon display="inline" opacity="0.6" fill="#EC2C22" points="131.085,327.563 88.635,303.578 131.085,279.594 	"/>
	<polygon display="inline" opacity="0.6" fill="#EC2C22" points="173.537,351.548 131.086,327.563 173.537,303.579 	"/>
	<polygon display="inline" opacity="0.4" fill="#EC2C22" points="215.988,375.611 173.538,351.627 215.988,327.643 	"/>
	<polygon display="inline" opacity="0.6" fill="#EC2C22" points="258.44,303.657 215.99,279.673 258.44,255.688 	"/>
	<polygon display="inline" opacity="0.55" fill="#EC2C22" points="173.536,207.713 215.987,231.698 173.536,255.683 	"/>
	<polygon display="inline" opacity="0.6" fill="#EC2C22" points="215.987,375.607 173.536,351.621 215.987,327.637 	"/>
	<polygon display="inline" opacity="0.4" fill="#EC2C22" points="258.44,399.598 215.99,375.611 258.44,351.627 	"/>
	<polygon display="inline" opacity="0.55" fill="#EC2C22" points="173.536,303.652 215.987,327.637 173.536,351.621 	"/>
	<polygon display="inline" opacity="0.4" fill="#7E318E" points="131.084,279.634 88.634,255.648 131.084,231.663 	"/>
	<polygon display="inline" opacity="0.55" fill="#EC2C22" points="215.987,231.698 258.438,255.683 215.987,279.668 	"/>
	<polygon display="inline" opacity="0.6" fill="#EC2C22" points="258.438,399.593 215.987,375.606 258.438,351.622 	"/>
	<polygon display="inline" opacity="0.55" fill="#EC2C22" points="215.987,327.638 258.438,351.622 215.987,375.606 	"/>
	<polygon display="inline" opacity="0.5" fill="#EC2C22" points="21.593,624.513 64.044,648.497 21.593,672.481 	"/>
	<polygon display="inline" opacity="0.55" fill="#E83828" points="258.438,255.686 300.889,279.67 258.438,303.654 	"/>
	<polygon display="inline" opacity="0.55" fill="#EC2C22" points="300.889,375.537 258.438,351.552 300.889,327.567 	"/>
	<polygon display="inline" opacity="0.55" fill="#EC2C22" points="258.438,351.554 300.889,375.538 258.438,399.522 	"/>
	<polygon display="inline" opacity="0.4" points="88.635,207.714 131.086,231.699 88.635,255.683 	"/>
	<polygon display="inline" opacity="0.4" fill="#7E318E" points="173.534,303.619 131.084,279.634 173.534,255.648 	"/>
	<polygon display="inline" opacity="0.4" fill="#7E318E" points="131.085,231.7 173.536,255.684 131.085,279.668 	"/>
	<polygon display="inline" opacity="0.4" fill="#7E318E" points="215.986,327.605 173.536,303.62 215.986,279.635 	"/>
	<polygon display="inline" opacity="0.4" fill="#7E318E" points="173.537,255.686 215.988,279.67 173.537,303.654 	"/>
	<polygon display="inline" opacity="0.4" fill="#7E318E" points="131.085,231.626 173.537,255.61 131.085,279.595 	"/>
	<polygon display="inline" opacity="0.4" fill="#7E318E" points="88.633,351.629 131.084,375.612 88.633,399.597 	"/>
	<polygon display="inline" opacity="0.4" fill="#7E318E" points="88.633,303.578 131.084,327.563 88.633,351.547 	"/>
	<polygon display="inline" opacity="0.4" fill="#7E318E" points="258.438,351.59 215.988,327.604 258.438,303.619 	"/>
	<polygon display="inline" opacity="0.4" fill="#F49E16" points="343.341,399.595 300.891,375.609 343.341,351.624 	"/>
	<polygon display="inline" opacity="0.45" fill="#F49E16" points="258.436,207.624 215.985,183.638 258.436,159.653 	"/>
	<polygon display="inline" opacity="0.45" fill="#F49E16" points="215.983,183.638 173.533,159.653 215.983,135.667 	"/>
	<polygon display="inline" opacity="0.4" fill="#F49E16" points="300.888,423.508 258.438,399.522 300.888,375.537 	"/>
	<polygon display="inline" opacity="0.4" fill="#7E318E" points="215.989,279.67 258.44,303.654 215.989,327.639 	"/>
	<polygon display="inline" opacity="0.4" fill="#7E318E" points="173.535,255.61 215.986,279.595 173.535,303.579 	"/>
	<polygon display="inline" opacity="0.2" fill="#7E318E" points="258.44,303.583 300.892,327.567 258.44,351.552 	"/>
	<polygon display="inline" opacity="0.4" fill="#7E318E" points="215.989,279.673 258.44,303.657 215.989,327.642 	"/>
	<polygon display="inline" opacity="0.4" fill="#7E318E" points="131.084,375.538 88.634,351.553 131.084,327.567 	"/>
	<polygon display="inline" opacity="0.4" fill="#7E318E" points="88.635,303.619 131.086,327.604 88.635,351.588 	"/>
	<polygon display="inline" opacity="0.4" fill="#7E318E" points="88.635,351.622 131.086,375.606 88.635,399.591 	"/>
	<polygon display="inline" opacity="0.4" fill="#EE7419" points="-234.622,193.155 -192.171,217.141 -234.622,241.126 	"/>
	<polygon display="inline" opacity="0.4" fill="#EE7419" points="258.439,207.713 300.891,231.699 258.439,255.684 	"/>
	<polygon display="inline" opacity="0.4" fill="#EE7419" points="470.689,231.664 428.239,207.678 470.689,183.693 	"/>
	<polygon display="inline" opacity="0.4" fill="#EE7419" points="428.239,207.678 470.69,231.664 428.239,255.648 	"/>
	<polygon display="inline" opacity="0.4" fill="#EE7419" points="470.689,279.635 428.239,255.648 470.689,231.664 	"/>
	<polygon display="inline" opacity="0.4" fill="#EE7419" points="428.239,255.648 470.69,279.635 428.239,303.619 	"/>
	<polygon display="inline" opacity="0.4" fill="#EE7419" points="470.689,327.605 428.239,303.619 470.689,279.635 	"/>
	<polygon display="inline" opacity="0.4" fill="#EE7419" points="428.239,303.619 470.69,327.605 428.239,351.59 	"/>
	<polygon display="inline" opacity="0.4" fill="#EE7419" points="470.689,375.576 428.239,351.59 470.689,327.605 	"/>
	<polygon display="inline" opacity="0.4" fill="#EE7419" points="428.239,351.59 470.69,375.576 428.239,399.561 	"/>
	<polygon display="inline" opacity="0.4" fill="#EE7419" points="428.238,399.561 385.788,375.574 428.238,351.59 	"/>
	<polygon display="inline" opacity="0.4" fill="#EE7419" points="385.788,375.574 428.239,399.561 385.788,423.545 	"/>
	<polygon display="inline" opacity="0.4" fill="#EE7419" points="385.789,423.545 343.339,399.559 385.789,375.574 	"/>
	<polygon display="inline" opacity="0.4" fill="#EE7419" points="343.339,399.559 385.79,423.545 343.339,447.529 	"/>
	<polygon display="inline" opacity="0.4" fill="#EE7419" points="385.789,279.634 343.339,255.647 385.789,231.663 	"/>
	<polygon display="inline" opacity="0.4" fill="#EE7419" points="343.339,255.647 385.79,279.634 343.339,303.618 	"/>
	<polygon display="inline" opacity="0.4" fill="#F49E16" points="300.891,375.609 343.342,399.596 300.891,423.58 	"/>
	<polygon display="inline" opacity="0.4" fill="#F49E16" points="428.236,351.549 385.786,327.563 428.236,303.578 	"/>
	<polygon display="inline" opacity="0.4" fill="#F49E16" points="385.786,327.563 428.237,351.55 385.786,375.534 	"/>
	<polygon display="inline" opacity="0.4" fill="#F49E16" points="215.99,135.667 258.441,159.654 215.99,183.638 	"/>
	<polygon display="inline" opacity="0.4" fill="#F49E16" points="173.532,111.136 215.984,135.122 173.532,159.106 	"/>
	<polygon display="inline" opacity="0.45" fill="#F49E16" points="428.232,303.582 385.782,279.597 428.232,255.611 	"/>
	<polygon display="inline" opacity="0.45" fill="#F49E16" points="428.232,255.686 385.782,231.7 428.232,207.715 	"/>
	<polygon display="inline" opacity="0.4" fill="#F49E16" points="385.787,231.626 428.238,255.612 385.787,279.597 	"/>
	<polygon display="inline" opacity="0.4" fill="#F49E16" points="385.787,279.633 428.238,303.619 385.787,327.604 	"/>
	<polygon display="inline" opacity="0.45" fill="#F49E16" points="343.34,351.478 300.89,327.492 343.34,303.507 	"/>
	<polygon display="inline" opacity="0.45" fill="#F49E16" points="343.34,303.581 300.89,279.596 343.34,255.61 	"/>
	<polygon display="inline" opacity="0.4" fill="#F49E16" points="300.895,279.521 343.346,303.508 300.895,327.492 	"/>
	<polygon display="inline" opacity="0.4" fill="#F49E16" points="300.895,327.528 343.346,351.515 300.895,375.499 	"/>
	<polygon display="inline" opacity="0.4" fill="#F49E16" points="258.437,159.653 300.888,183.639 258.437,207.624 	"/>
	<polygon display="inline" opacity="0.4" fill="#F49E16" points="258.438,447.457 215.988,423.472 258.438,399.486 	"/>
	<polygon display="inline" opacity="0.4" fill="#F49E16" points="258.441,399.559 300.893,423.545 258.441,447.529 	"/>
	<polygon display="inline" opacity="0.4" fill="#F49E16" points="385.79,375.532 343.34,351.547 385.79,327.562 	"/>
	<polygon display="inline" opacity="0.4" fill="#EE7419" points="385.786,327.641 343.336,303.654 385.786,279.67 	"/>
	<polygon display="inline" opacity="0.4" fill="#EE7419" points="343.336,303.654 385.787,327.641 343.336,351.625 	"/>
	<polygon display="inline" opacity="0.4" fill="#EE7419" points="385.789,375.538 343.339,351.552 385.789,327.567 	"/>
	<polygon display="inline" opacity="0.4" fill="#EE7419" points="173.533,159.653 215.983,135.667 173.533,111.682 	"/>
	<polygon display="inline" opacity="0.4" fill="#EE7419" points="343.339,351.552 385.79,375.538 343.339,399.522 	"/>
	<polygon display="inline" opacity="0.4" fill="#EE7419" points="343.337,447.529 300.887,423.543 343.337,399.559 	"/>
	<polygon display="inline" opacity="0.4" fill="#EE7419" points="300.887,423.543 343.338,447.529 300.887,471.514 	"/>
	<polygon display="inline" opacity="0.4" fill="#EE7419" points="300.888,471.514 258.438,447.527 300.888,423.543 	"/>
	<polygon display="inline" opacity="0.4" fill="#EE7419" points="258.438,447.527 300.889,471.514 258.438,495.498 	"/>
	<polygon display="inline" opacity="0.4" fill="#EE7419" points="470.688,183.693 428.238,159.707 470.688,135.724 	"/>
	<polygon display="inline" opacity="0.4" fill="#EE7419" points="428.238,159.708 470.689,183.693 428.238,207.679 	"/>
	<polygon display="inline" opacity="0.4" fill="#EE7419" points="343.341,207.713 385.791,183.728 343.341,159.744 	"/>
	<polygon display="inline" opacity="0.4" fill="#EE7419" points="300.891,183.728 258.439,207.713 300.891,231.699 	"/>
	<polygon display="inline" opacity="0.4" fill="#EE7419" points="385.787,183.728 428.237,159.742 385.787,135.758 	"/>
	<polygon display="inline" opacity="0.4" fill="#EE7419" points="343.343,159.743 300.892,183.728 343.343,207.713 	"/>
	<polygon display="inline" opacity="0.4" fill="#EE7419" points="343.337,255.684 300.887,231.698 343.337,207.714 	"/>
	<polygon display="inline" opacity="0.4" fill="#EE7419" points="300.887,231.699 343.338,255.684 300.887,279.669 	"/>
	<polygon display="inline" opacity="0.4" fill="#EE7419" points="385.786,231.663 343.336,207.677 385.786,183.693 	"/>
	<polygon display="inline" opacity="0.4" fill="#EE7419" points="343.336,207.678 385.787,231.663 343.336,255.648 	"/>
	<polygon display="inline" opacity="0.4" fill="#EE7419" points="343.336,255.61 385.787,279.596 343.336,303.58 	"/>
	<polygon display="inline" opacity="0.4" fill="#EE7419" points="343.336,207.641 385.787,231.626 343.336,255.611 	"/>
	<polygon display="inline" opacity="0.4" fill="#EE7419" points="300.893,183.656 258.441,207.642 300.893,231.626 	"/>
	<polygon display="inline" opacity="0.4" fill="#EE7419" points="385.787,135.759 343.336,159.745 385.787,183.729 	"/>
	<polygon display="inline" opacity="0.4" fill="#EE7419" points="428.24,207.641 470.691,231.626 428.24,255.611 	"/>
	<polygon display="inline" opacity="0.4" fill="#EE7419" points="428.24,255.686 470.691,279.672 428.24,303.656 	"/>
	<polygon display="inline" opacity="0.4" fill="#EE7419" points="428.24,303.656 470.691,327.642 428.24,351.626 	"/>
	<polygon display="inline" opacity="0.4" fill="#EE7419" points="343.336,303.655 385.787,327.641 343.336,351.625 	"/>
	<polygon display="inline" opacity="0.4" fill="#EE7419" points="343.336,351.552 385.787,375.537 343.336,399.521 	"/>
	<polygon display="inline" opacity="0.4" fill="#EE7419" points="258.441,447.53 300.893,471.516 258.441,495.5 	"/>
	<polygon display="inline" opacity="0.4" fill="#EE7419" points="300.891,423.546 343.342,447.531 300.891,471.516 	"/>
	<polygon display="inline" opacity="0.4" fill="#EE7419" points="343.335,399.558 385.786,423.543 343.335,447.527 	"/>
	<polygon display="inline" opacity="0.4" fill="#EE7419" points="385.787,375.572 428.238,399.558 385.787,423.542 	"/>
	<polygon display="inline" opacity="0.4" fill="#EE7419" points="428.24,351.553 470.691,375.538 428.24,399.522 	"/>
	<polygon display="inline" opacity="0.4" fill="#EE7419" points="428.237,207.713 385.787,183.728 428.237,159.744 	"/>
	<polygon display="inline" opacity="0.4" fill="#EE7419" points="385.787,183.728 428.238,207.713 385.787,231.698 	"/>
	<polygon display="inline" opacity="0.4" fill="#EE7419" points="428.241,159.743 470.691,135.757 428.241,111.773 	"/>
	<polygon display="inline" opacity="0.4" fill="#EE7419" points="385.787,135.758 343.336,159.743 385.787,183.729 	"/>
	<polygon display="inline" opacity="0.4" fill="#EE7419" points="428.237,159.671 470.688,183.656 428.237,207.642 	"/>
	<polygon display="inline" opacity="0.4" fill="#EE7419" points="343.341,159.671 300.89,183.656 343.341,207.642 	"/>
	<polygon display="inline" opacity="0.4" fill="#EE7419" points="300.893,135.76 258.441,159.745 300.893,183.73 	"/>
	<polygon display="inline" opacity="0.4" fill="#EE7419" points="385.786,183.729 428.237,207.715 385.786,231.7 	"/>
	<polygon display="inline" opacity="0.4" fill="#EE7419" points="428.238,111.774 385.787,135.759 428.238,159.745 	"/>
	<polygon display="inline" opacity="0.4" fill="#EE7419" points="258.436,495.501 215.985,471.515 258.436,447.53 	"/>
	<polygon display="inline" opacity="0.4" fill="#EE7419" points="215.985,423.545 258.436,447.53 215.985,471.516 	"/>
	<polygon display="inline" opacity="0.4" fill="#EE7419" points="428.238,111.738 385.787,135.724 428.238,159.709 	"/>
	<polygon display="inline" opacity="0.4" fill="#EE7419" points="215.986,183.728 258.438,207.713 215.986,231.699 	"/>
	<polygon display="inline" opacity="0.4" fill="#EE7419" points="173.536,159.743 215.987,183.728 173.536,207.713 	"/>
	<polygon display="inline" opacity="0.4" fill="#EE7419" points="88.635,111.773 131.086,135.758 88.635,159.744 	"/>
	<polygon display="inline" opacity="0.4" fill="#EE7419" points="131.084,135.758 88.634,111.772 131.084,87.788 	"/>
	<polygon display="inline" opacity="0.4" fill="#EE7419" points="173.535,207.713 131.085,183.728 173.535,159.744 	"/>
	<polygon display="inline" opacity="0.4" fill="#EE7419" points="131.085,183.73 88.635,159.745 131.085,135.76 	"/>
	<polygon display="inline" opacity="0.4" fill="#EE7419" points="131.085,135.759 88.635,111.773 131.085,87.789 	"/>
	<polygon display="inline" opacity="0.4" fill="#EE7419" points="173.534,111.738 131.084,87.752 173.534,63.768 	"/>
	<polygon display="inline" opacity="0.4" fill="#EE7419" points="215.987,231.698 173.537,207.712 215.987,183.728 	"/>
	<polygon display="inline" opacity="0.4" fill="#EE7419" points="258.438,255.684 215.988,231.698 258.438,207.714 	"/>
	<polygon display="inline" opacity="0.4" fill="#EE7419" points="131.084,87.788 173.536,111.773 131.084,135.758 	"/>
	<polygon display="inline" opacity="0.4" fill="#EE7419" points="173.536,111.773 131.086,87.788 173.536,63.803 	"/>
	<polygon display="inline" opacity="0.4" fill="#EE7419" points="215.988,87.788 173.538,63.803 215.988,39.818 	"/>
	<polygon display="inline" opacity="0.4" fill="#EE7419" points="173.536,63.803 215.987,87.788 173.536,111.773 	"/>
	<polygon display="inline" opacity="0.4" fill="#EE7419" points="215.987,87.788 173.537,63.802 215.987,39.818 	"/>
	<polygon display="inline" opacity="0.4" fill="#EE7419" points="258.436,63.802 215.985,39.817 258.436,15.833 	"/>
	<polygon display="inline" opacity="0.4" fill="#EE7419" points="215.987,39.817 258.438,63.803 215.987,87.788 	"/>
	<polygon display="inline" opacity="0.4" fill="#EE7419" points="258.438,63.802 215.988,39.817 258.438,15.833 	"/>
	<polygon display="inline" opacity="0.4" fill="#EE7419" points="131.083,87.753 88.632,63.768 131.083,39.783 	"/>
	<polygon display="inline" opacity="0.4" fill="#EE7419" points="131.085,87.753 88.635,63.768 131.085,39.783 	"/>
	<polygon display="inline" opacity="0.4" fill="#EE7419" points="258.438,15.832 300.889,39.817 258.438,63.803 	"/>
	<polygon display="inline" opacity="0.4" fill="#EE7419" points="88.635,63.803 131.086,87.788 88.635,111.773 	"/>
	<polygon display="inline" opacity="0.4" fill="#EE7419" points="131.086,39.817 173.537,63.803 131.086,87.788 	"/>
	<polygon display="inline" opacity="0.4" fill="#EE7419" points="215.985,135.723 173.536,111.738 215.985,87.753 	"/>
	<polygon display="inline" opacity="0.4" fill="#EE7419" points="215.985,87.753 258.437,111.738 215.985,135.724 	"/>
	<polygon display="inline" opacity="0.4" fill="#EE7419" points="258.439,111.773 215.99,87.788 258.439,63.803 	"/>
	<polygon display="inline" opacity="0.4" fill="#EE7419" points="258.439,63.803 300.891,87.788 258.439,111.773 	"/>
	<polygon display="inline" opacity="0.4" fill="#EE7419" points="300.888,87.787 258.438,63.802 300.888,39.817 	"/>
	<polygon display="inline" opacity="0.4" fill="#EE7419" points="258.443,159.708 300.893,135.723 258.443,111.738 	"/>
	<polygon display="inline" opacity="0.4" fill="#EE7419" points="258.443,111.738 215.992,135.723 258.443,159.708 	"/>
	<polygon display="inline" opacity="0.4" fill="#EE7419" points="300.893,183.73 343.342,159.745 300.893,135.76 	"/>
	<polygon display="inline" opacity="0.4" fill="#EE7419" points="300.893,135.758 258.441,159.744 300.893,183.729 	"/>
	<polygon display="inline" opacity="0.4" fill="#EE7419" points="258.441,111.7 215.99,135.686 258.441,159.671 	"/>
	<polygon display="inline" opacity="0.2" fill="#EE7419" points="215.984,87.789 258.436,111.774 215.984,135.759 	"/>
	<polygon display="inline" opacity="0.4" fill="#EE7419" points="173.533,159.653 131.083,135.667 173.533,111.683 	"/>
	<polygon display="inline" opacity="0.4" fill="#EE7419" points="-183.222,155.177 -140.771,179.163 -183.222,203.148 	"/>
	<polygon display="inline" opacity="0.4" fill="#EE7419" points="258.437,63.803 300.888,87.789 258.437,111.774 	"/>
	<polygon display="inline" opacity="0.4" fill="#EE7419" points="131.086,135.742 173.538,159.728 131.086,183.713 	"/>
	<polygon display="inline" opacity="0.25" fill="#EE7419" points="131.085,135.778 173.537,159.763 131.085,183.749 	"/>
	<polygon display="inline" opacity="0.4" fill="#EE7419" points="-246.859,223.858 -204.407,247.844 -246.859,271.829 	"/>
	<polygon display="inline" opacity="0.55" fill="#EC2C22" points="46.184,183.728 88.635,207.713 46.184,231.698 	"/>
	<polygon display="inline" opacity="0.6" fill="#EC2C22" points="88.635,303.652 46.184,279.668 88.635,255.684 	"/>
	<polygon display="inline" opacity="0.4" fill="#EC2C22" points="88.635,351.624 46.184,327.64 88.635,303.655 	"/>
	<polygon display="inline" opacity="0.55" fill="#EC2C22" points="46.184,231.698 88.635,255.684 46.184,279.668 	"/>
	<polygon display="inline" opacity="0.6" fill="#EC2C22" points="88.635,351.623 46.184,327.639 88.635,303.654 	"/>
	<polygon display="inline" opacity="0.4" fill="#EC2C22" points="88.635,399.594 46.184,375.609 88.635,351.625 	"/>
	<polygon display="inline" opacity="0.55" fill="#EC2C22" points="46.184,279.668 88.635,303.654 46.184,327.639 	"/>
	<polygon display="inline" opacity="0.6" fill="#EC2C22" points="88.635,399.594 46.184,375.609 88.635,351.625 	"/>
	<polygon display="inline" opacity="0.55" fill="#EC2C22" points="46.184,327.639 88.635,351.625 46.184,375.609 	"/>
	<polygon display="inline" fill="#EC2C22" points="-209.966,156.347 -185.981,113.896 -161.997,156.347 	"/>
</g>
<g id="图层_8" display="none">
	<polygon display="inline" opacity="0.8" fill="#EA5514" points="609.923,442.845 567.472,418.859 609.923,394.875 	"/>
	<polygon display="inline" opacity="0.8" fill="#EA5514" points="87.375,160.039 44.924,136.054 87.375,112.069 	"/>
	<polygon display="inline" opacity="0.4" fill="#EC2C22" points="87.375,256.016 44.924,232.03 87.375,208.046 	"/>
	<polygon display="inline" opacity="0.4" fill="#EC2C22" points="257.178,303.985 214.727,280 257.178,256.015 	"/>
	<polygon display="inline" opacity="0.4" fill="#EC2C22" points="214.728,280 172.276,256.015 214.728,232.03 	"/>
	<polygon display="inline" opacity="0.4" fill="#EC2C22" points="172.275,256.016 129.824,232.03 172.275,208.046 	"/>
	<polygon display="inline" opacity="0.4" fill="#EC2C22" points="129.825,232.029 87.374,208.044 129.825,184.06 	"/>
	<polygon display="inline" opacity="0.4" fill="#EC2C22" points="87.375,208.044 44.924,184.06 87.375,160.075 	"/>
	<polygon display="inline" opacity="0.5" fill="#EC2C22" points="87.375,256.014 44.924,232.029 87.375,208.044 	"/>
	<polygon display="inline" opacity="0.4" fill="#EC2C22" points="87.375,303.985 44.924,280.001 87.375,256.015 	"/>
	<polygon display="inline" opacity="0.5" fill="#EC2C22" points="87.375,208.044 44.924,184.06 87.375,160.074 	"/>
	<polygon display="inline" opacity="0.4" fill="#EE7419" points="87.375,160.074 44.925,136.089 87.375,112.104 	"/>
	<polygon display="inline" opacity="0.4" fill="#EE7419" points="129.825,184.06 87.375,160.073 129.825,136.089 	"/>
	<polygon display="inline" opacity="0.4" fill="#EE7419" points="172.276,208.044 129.826,184.059 172.276,160.074 	"/>
	<polygon display="inline" opacity="0.4" fill="#EE7419" points="214.727,232.028 172.277,208.044 214.727,184.06 	"/>
	<polygon display="inline" opacity="0.4" fill="#EE7419" points="257.178,256.015 214.728,232.028 257.178,208.044 	"/>
	<polygon display="inline" opacity="0.8" fill="#EC2C22" points="44.924,136.089 87.375,160.074 44.924,184.06 	"/>
	<polygon display="inline" opacity="0.5" fill="#EC2C22" points="129.826,232.028 87.375,208.044 129.826,184.06 	"/>
	<polygon display="inline" opacity="0.5" fill="#EC2C22" points="87.375,160.074 129.826,184.06 87.375,208.044 	"/>
	<polygon display="inline" opacity="0.5" fill="#EC2C22" points="129.826,136.091 172.277,160.076 129.826,184.062 	"/>
	<polygon display="inline" opacity="0.5" fill="#EC2C22" points="214.723,183.952 257.174,207.937 214.723,231.922 	"/>
	<polygon display="inline" opacity="0.4" fill="#EC2C22" points="129.826,327.969 87.375,303.983 129.826,279.998 	"/>
	<polygon display="inline" opacity="0.5" fill="#EC2C22" points="87.375,256.014 129.826,279.998 87.375,303.983 	"/>
	<polygon display="inline" opacity="0.5" fill="#EC2C22" points="172.276,256.015 129.826,232.028 172.276,208.044 	"/>
	<polygon display="inline" opacity="0.5" fill="#EC2C22" points="129.826,184.06 172.276,208.044 129.826,232.028 	"/>
	<polygon display="inline" opacity="0.4" fill="#EC2C22" points="172.276,351.954 129.826,327.968 172.276,303.983 	"/>
	<polygon display="inline" opacity="0.5" fill="#EC2C22" points="129.826,279.999 172.276,303.983 129.826,327.968 	"/>
	<polygon display="inline" opacity="0.5" fill="#EC2C22" points="214.728,280 172.277,256.016 214.728,232.03 	"/>
	<polygon display="inline" opacity="0.5" fill="#EC2C22" points="129.826,327.894 87.375,303.909 129.826,279.925 	"/>
	<polygon display="inline" opacity="0.5" fill="#EC2C22" points="172.277,351.879 129.826,327.895 172.277,303.91 	"/>
	<polygon display="inline" opacity="0.4" fill="#EC2C22" points="214.729,375.942 172.277,351.958 214.729,327.974 	"/>
	<polygon display="inline" opacity="0.5" fill="#EC2C22" points="257.181,303.988 214.73,280.004 257.181,256.019 	"/>
	<polygon display="inline" opacity="0.3" fill="#EC2C22" points="299.632,280.004 257.182,256.02 299.632,232.035 	"/>
	<polygon display="inline" opacity="0.5" fill="#EC2C22" points="172.276,208.044 214.727,232.028 172.276,256.014 	"/>
	<polygon display="inline" opacity="0.5" fill="#EC2C22" points="214.727,375.938 172.276,351.952 214.727,327.968 	"/>
	<polygon display="inline" opacity="0.4" fill="#EC2C22" points="257.181,399.929 214.73,375.942 257.181,351.958 	"/>
	<polygon display="inline" opacity="0.5" fill="#EC2C22" points="172.276,303.983 214.727,327.968 172.276,351.952 	"/>
	<polygon display="inline" opacity="0.4" fill="#7E318E" points="129.824,279.965 87.374,255.979 129.824,231.994 	"/>
	<polygon display="inline" opacity="0.5" fill="#EC2C22" points="214.727,232.029 257.178,256.015 214.727,279.999 	"/>
	<polygon display="inline" opacity="0.5" fill="#EC2C22" points="257.178,399.924 214.727,375.938 257.178,351.953 	"/>
	<polygon display="inline" opacity="0.5" fill="#EC2C22" points="214.727,327.969 257.178,351.953 214.727,375.938 	"/>
	<polygon display="inline" opacity="0.5" fill="#E83828" points="257.178,256.017 299.629,280.001 257.178,303.985 	"/>
	<polygon display="inline" opacity="0.5" fill="#EC2C22" points="299.629,375.868 257.178,351.883 299.629,327.898 	"/>
	<polygon display="inline" opacity="0.5" fill="#EC2C22" points="257.178,351.885 299.629,375.869 257.178,399.854 	"/>
	<polygon display="inline" opacity="0.4" fill="#7E318E" points="87.375,208.046 129.826,232.03 87.375,256.015 	"/>
	<polygon display="inline" opacity="0.4" fill="#7E318E" points="172.274,303.95 129.824,279.965 172.274,255.979 	"/>
	<polygon display="inline" opacity="0.4" fill="#7E318E" points="129.825,232.03 172.276,256.015 129.825,279.999 	"/>
	<polygon display="inline" opacity="0.4" fill="#7E318E" points="214.727,327.937 172.276,303.951 214.727,279.966 	"/>
	<polygon display="inline" opacity="0.4" fill="#7E318E" points="172.277,256.017 214.729,280.001 172.277,303.985 	"/>
	<polygon display="inline" opacity="0.4" fill="#7E318E" points="129.826,231.958 172.277,255.941 129.826,279.926 	"/>
	<polygon display="inline" opacity="0.4" fill="#7E318E" points="87.374,207.974 129.825,231.958 87.374,255.942 	"/>
	<polygon display="inline" opacity="0.4" fill="#7E318E" points="87.374,351.96 129.824,375.943 87.374,399.928 	"/>
	<polygon display="inline" opacity="0.4" fill="#7E318E" points="87.374,303.909 129.824,327.894 87.374,351.878 	"/>
	<polygon display="inline" opacity="0.4" fill="#7E318E" points="257.179,351.921 214.729,327.936 257.179,303.95 	"/>
	<polygon display="inline" opacity="0.4" fill="#7E318E" points="214.729,280.001 257.181,303.985 214.729,327.97 	"/>
	<polygon display="inline" opacity="0.4" fill="#7E318E" points="172.275,255.941 214.727,279.926 172.275,303.91 	"/>
	<polygon display="inline" opacity="0.2" fill="#7E318E" points="257.181,303.914 299.632,327.898 257.181,351.883 	"/>
	<polygon display="inline" opacity="0.5" fill="#EC2C22" points="469.425,661.813 426.974,637.827 469.425,613.843 	"/>
	<polygon display="inline" opacity="0.5" fill="#EC2C22" points="426.974,637.829 469.425,661.813 426.974,685.798 	"/>
	<polygon display="inline" opacity="0.2" fill="#7E318E" points="426.977,589.858 469.428,613.843 426.977,637.827 	"/>
	<polygon display="inline" opacity="0.4" fill="#7E318E" points="214.729,280.004 257.181,303.988 214.729,327.973 	"/>
	<polygon display="inline" opacity="0.4" fill="#7E318E" points="129.824,375.869 87.374,351.884 129.824,327.898 	"/>
	<polygon display="inline" opacity="0.4" fill="#7E318E" points="87.375,303.95 129.826,327.935 87.375,351.919 	"/>
	<polygon display="inline" opacity="0.4" fill="#7E318E" points="87.375,351.953 129.826,375.938 87.375,399.922 	"/>
	<polygon display="inline" opacity="0.4" fill="#EE7419" points="660.561,407.14 703.012,431.126 660.561,455.11 	"/>
	<polygon display="inline" opacity="0.4" fill="#EE7419" points="214.729,184.081 257.181,208.066 214.729,232.052 	"/>
	<polygon display="inline" opacity="0.5" fill="#EC2C22" points="172.274,159.922 214.725,183.907 172.274,207.893 	"/>
	<polygon display="inline" opacity="0.4" fill="#EE7419" points="172.281,160.051 214.732,184.037 172.281,208.022 	"/>
	<polygon display="inline" opacity="0.5" fill="#EC2C22" points="6.002,628.021 48.453,652.006 6.002,675.992 	"/>
	<polygon display="inline" opacity="0.4" fill="#EE7419" points="6.009,628.15 48.46,652.136 6.009,676.121 	"/>
	<polygon display="inline" opacity="0.5" fill="#EC2C22" points="85.267,633.355 127.717,657.34 85.267,681.326 	"/>
	<polygon display="inline" opacity="0.4" fill="#EE7419" points="134.606,633.484 177.058,657.47 134.606,681.455 	"/>
	<polygon display="inline" opacity="0.4" fill="#EE7419" points="129.827,136.111 172.278,160.096 129.827,184.082 	"/>
	<polygon display="inline" opacity="0.4" fill="#EE7419" points="660.561,351.878 703.012,375.864 660.561,399.849 	"/>
	<polygon display="inline" opacity="0.4" fill="#EE7419" points="588.703,439.611 631.154,463.596 588.703,487.582 	"/>
	<polygon display="inline" opacity="0.4" fill="#EE7419" points="87.375,112.104 129.826,136.089 87.375,160.075 	"/>
	<polygon display="inline" opacity="0.4" fill="#EE7419" points="172.275,208.044 129.825,184.06 172.275,160.075 	"/>
	<polygon display="inline" opacity="0.4" fill="#EE7419" points="129.826,184.062 87.375,160.075 129.826,136.091 	"/>
	<polygon display="inline" opacity="0.4" fill="#EE7419" points="214.728,232.028 172.277,208.044 214.728,184.06 	"/>
	<polygon display="inline" opacity="0.4" fill="#EE7419" points="257.178,256.015 214.729,232.029 257.178,208.045 	"/>
	<polygon display="inline" opacity="0.5" fill="#EC2C22" points="44.924,184.059 87.375,208.044 44.924,232.029 	"/>
	<polygon display="inline" opacity="0.5" fill="#EC2C22" points="87.375,303.983 44.924,279.999 87.375,256.015 	"/>
	<polygon display="inline" opacity="0.4" fill="#EC2C22" points="87.375,351.955 44.924,327.971 87.375,303.986 	"/>
	<polygon display="inline" opacity="0.5" fill="#EC2C22" points="44.924,232.028 87.375,256.015 44.924,279.999 	"/>
	<polygon display="inline" opacity="0.5" fill="#EC2C22" points="87.375,351.954 44.924,327.97 87.375,303.985 	"/>
	<polygon display="inline" opacity="0.4" fill="#EC2C22" points="87.375,399.925 44.924,375.94 87.375,351.956 	"/>
	<polygon display="inline" opacity="0.5" fill="#EC2C22" points="44.924,279.999 87.375,303.985 44.924,327.97 	"/>
	<polygon display="inline" opacity="0.5" fill="#EC2C22" points="87.375,399.925 44.924,375.94 87.375,351.956 	"/>
	<polygon display="inline" opacity="0.5" fill="#EC2C22" points="44.924,327.97 87.375,351.956 44.924,375.94 	"/>
	<polygon display="inline" opacity="0.4" fill="#EE7419" points="129.826,136.053 87.375,112.068 129.826,88.083 	"/>
	<polygon display="inline" opacity="0.4" fill="#EE7419" points="129.824,88.082 172.275,112.068 129.824,136.052 	"/>
	<polygon display="inline" opacity="0.4" fill="#EE7419" points="172.276,64.097 214.728,88.083 172.276,112.068 	"/>
	<polygon display="inline" opacity="0.4" fill="#EE7419" points="214.727,88.082 172.277,64.097 214.727,40.112 	"/>
	<polygon display="inline" opacity="0.4" fill="#EE7419" points="257.176,64.097 214.725,40.111 257.176,16.127 	"/>
	<polygon display="inline" opacity="0.4" fill="#EE7419" points="214.727,40.112 257.178,64.097 214.727,88.083 	"/>
	<polygon display="inline" opacity="0.4" fill="#EE7419" points="257.178,64.097 214.729,40.111 257.178,16.127 	"/>
	<polygon display="inline" opacity="0.4" fill="#EE7419" points="214.728,88.101 172.278,64.116 214.728,40.131 	"/>
	<polygon display="inline" opacity="0.4" fill="#EE7419" points="257.178,16.126 299.629,40.112 257.178,64.097 	"/>
	<polygon display="inline" opacity="0.4" fill="#EE7419" points="129.826,88.101 87.375,64.116 129.826,40.131 	"/>
	<polygon display="inline" opacity="0.4" fill="#EE7419" points="129.828,88.101 87.379,64.116 129.828,40.131 	"/>
	<polygon display="inline" opacity="0.4" fill="#EE7419" points="129.828,40.131 172.279,64.116 129.828,88.102 	"/>
	<polygon display="inline" opacity="0.4" fill="#EE7419" points="214.723,136.035 257.173,112.051 214.723,88.066 	"/>
	<polygon display="inline" opacity="0.4" fill="#EE7419" points="257.18,112.068 214.73,88.082 257.18,64.098 	"/>
	<polygon display="inline" opacity="0.4" fill="#EE7419" points="257.18,64.097 299.631,88.083 257.18,112.068 	"/>
	<polygon display="inline" opacity="0.4" fill="#EE7419" points="299.628,88.082 257.179,64.096 299.628,40.112 	"/>
	<polygon display="inline" opacity="0.4" fill="#EE7419" points="214.725,88.083 172.273,112.068 214.725,136.054 	"/>
	<polygon display="inline" opacity="0.4" fill="#EE7419" points="172.273,159.947 129.824,135.962 172.273,111.978 	"/>
	<polygon display="inline" opacity="0.4" fill="#EE7419" points="257.177,64.098 299.628,88.083 257.177,112.068 	"/>
	<polygon display="inline" opacity="0.2" fill="#EE7419" points="214.725,88.101 172.273,112.086 214.725,136.071 	"/>
	<polygon display="inline" opacity="0.3" fill="#EE7419" points="172.274,112.104 214.725,136.09 172.274,160.074 	"/>
	<polygon display="inline" opacity="0.2" fill="#EE7419" points="257.182,112.126 299.633,136.112 257.182,160.097 	"/>
	<polygon display="inline" opacity="0.2" fill="#EE7419" points="257.165,112.126 299.616,136.112 257.165,160.096 	"/>
	<polygon display="inline" opacity="0.2" fill="#EE7419" points="299.624,135.873 342.075,159.859 299.624,183.843 	"/>
	<polygon display="inline" opacity="0.2" fill="#EE7419" points="299.615,136.111 342.066,160.097 299.615,184.082 	"/>
	<polygon display="inline" opacity="0.4" fill="#EE7419" points="172.275,112.051 129.825,88.065 172.275,64.081 	"/>
	<polygon display="inline" opacity="0.4" fill="#EE7419" points="172.277,112.086 129.827,88.101 172.277,64.116 	"/>
	<polygon display="inline" opacity="0.4" fill="#EE7419" points="129.826,136.091 87.376,112.105 129.826,88.121 	"/>
	<polygon display="inline" opacity="0.4" fill="#EE7419" points="299.621,231.904 257.171,207.919 299.621,183.935 	"/>
	<polygon display="inline" opacity="0.4" fill="#EE7419" points="299.619,183.933 342.07,207.919 299.619,231.903 	"/>
	<polygon display="inline" opacity="0.4" fill="#EE7419" points="342.072,159.948 384.523,183.934 342.072,207.919 	"/>
	<polygon display="inline" opacity="0.4" fill="#EE7419" points="384.521,183.933 342.072,159.948 384.521,135.963 	"/>
	<polygon display="inline" opacity="0.4" fill="#EE7419" points="426.971,159.948 384.52,135.962 426.971,111.978 	"/>
	<polygon display="inline" opacity="0.4" fill="#EE7419" points="384.521,135.963 426.973,159.948 384.521,183.934 	"/>
	<polygon display="inline" opacity="0.4" fill="#EE7419" points="426.973,159.948 384.523,135.962 426.973,111.978 	"/>
	<polygon display="inline" opacity="0.4" fill="#EE7419" points="257.173,160.106 214.722,136.121 257.173,112.136 	"/>
	<polygon display="inline" opacity="0.4" fill="#EE7419" points="257.175,160.106 214.726,136.121 257.175,112.136 	"/>
	<polygon display="inline" opacity="0.4" fill="#EE7419" points="384.523,183.952 342.074,159.967 384.523,135.982 	"/>
	<polygon display="inline" opacity="0.4" fill="#EE7419" points="299.631,184.071 257.182,160.086 299.631,136.102 	"/>
	<polygon display="inline" opacity="0.4" fill="#EE7419" points="299.633,184.091 257.184,160.105 299.633,136.121 	"/>
	<polygon display="inline" opacity="0.4" fill="#EE7419" points="426.973,111.978 469.424,135.963 426.973,159.948 	"/>
	<polygon display="inline" opacity="0.4" fill="#EE7419" points="384.521,231.868 342.07,207.884 384.521,183.899 	"/>
	<polygon display="inline" opacity="0.4" fill="#EE7419" points="426.975,207.919 384.525,183.933 426.975,159.949 	"/>
	<polygon display="inline" opacity="0.5" fill="#F39800" points="426.975,256.037 384.525,232.051 426.975,208.067 	"/>
	<polygon display="inline" opacity="0.5" fill="#F39800" points="257.183,207.828 214.733,183.842 257.183,159.858 	"/>
	<polygon display="inline" opacity="0.5" fill="#F39800" points="214.731,183.843 172.282,159.856 214.731,135.873 	"/>
	<polygon display="inline" opacity="0.5" fill="#F39800" points="426.975,303.989 384.525,280.003 426.975,256.019 	"/>
	<polygon display="inline" opacity="0.5" fill="#F39800" points="426.975,351.691 384.525,327.705 426.975,303.721 	"/>
	<polygon display="inline" opacity="0.5" fill="#F39800" points="342.065,400.04 299.616,376.054 342.065,352.069 	"/>
	<polygon display="inline" opacity="0.4" fill="#EE7419" points="426.975,159.948 469.426,183.934 426.975,207.919 	"/>
	<polygon display="inline" opacity="0.4" fill="#EE7419" points="469.424,183.933 426.975,159.947 469.424,135.963 	"/>
	<polygon display="inline" opacity="0.4" fill="#EE7419" points="384.52,183.935 426.971,207.919 384.52,231.905 	"/>
	<polygon display="inline" opacity="0.4" fill="#EE7419" points="342.068,255.798 299.619,231.813 342.068,207.829 	"/>
	<polygon display="inline" opacity="0.4" fill="#EE7419" points="342.068,207.864 384.52,231.849 342.068,255.835 	"/>
	<polygon display="inline" opacity="0.4" fill="#EE7419" points="426.973,159.949 469.424,183.935 426.973,207.919 	"/>
	<polygon display="inline" opacity="0.4" fill="#EE7419" points="426.973,159.858 469.424,183.843 426.973,207.829 	"/>
	<polygon display="inline" opacity="0.4" fill="#EE7419" points="426.975,207.829 469.426,231.814 426.975,255.799 	"/>
	<polygon display="inline" opacity="0.4" fill="#EE7419" points="469.424,231.813 426.975,207.828 469.424,183.843 	"/>
	<polygon display="inline" opacity="0.4" fill="#EE7419" points="426.973,207.829 469.424,231.815 426.973,255.799 	"/>
	<polygon display="inline" opacity="0.4" fill="#EE7419" points="384.52,183.952 426.971,207.938 384.52,231.922 	"/>
	<polygon display="inline" opacity="0.4" fill="#EE7419" points="342.072,207.957 384.523,231.943 342.072,255.927 	"/>
	<polygon display="inline" opacity="0.4" fill="#EE7419" points="299.62,231.767 342.071,255.751 299.62,279.737 	"/>
	<polygon display="inline" opacity="0.4" fill="#EE7419" points="299.624,231.859 342.075,255.845 299.624,279.83 	"/>
	<polygon display="inline" opacity="0.4" fill="#EE7419" points="257.169,208.02 299.62,232.004 257.169,255.991 	"/>
	<polygon display="inline" opacity="0.4" fill="#EE7419" points="626.576,380.442 669.027,404.428 626.576,428.412 	"/>
	<polygon display="inline" opacity="0.4" fill="#EE7419" points="342.07,207.902 299.621,183.917 342.07,159.932 	"/>
	<polygon display="inline" opacity="0.4" fill="#EE7419" points="342.072,207.937 299.623,183.952 342.072,159.967 	"/>
	<polygon display="inline" opacity="0.4" fill="#EE7419" points="299.619,375.938 342.07,399.925 299.619,423.909 	"/>
	<polygon display="inline" opacity="0.4" fill="#EE7419" points="257.165,399.786 299.616,423.772 257.165,447.757 	"/>
	<polygon display="inline" opacity="0.4" fill="#EE7419" points="660.561,242.954 703.012,266.939 660.561,290.925 	"/>
	<polygon display="inline" opacity="0.4" fill="#EE7419" points="384.521,375.938 342.072,351.953 384.521,327.969 	"/>
	<polygon display="inline" opacity="0.4" fill="#EE7419" points="384.521,327.969 426.973,351.954 384.521,375.939 	"/>
	<polygon display="inline" opacity="0.4" fill="#EE7419" points="426.973,303.983 469.424,327.969 426.973,351.954 	"/>
	<polygon display="inline" opacity="0.4" fill="#EE7419" points="384.521,423.874 342.07,399.89 384.521,375.905 	"/>
	<polygon display="inline" opacity="0.4" fill="#EE7419" points="426.975,399.925 384.525,375.938 426.975,351.955 	"/>
	<polygon display="inline" opacity="0.4" fill="#EE7419" points="426.975,351.954 469.426,375.939 426.975,399.925 	"/>
	<polygon display="inline" opacity="0.4" fill="#EE7419" points="469.424,375.938 426.975,351.953 469.424,327.969 	"/>
	<polygon display="inline" opacity="0.4" fill="#EE7419" points="384.52,375.94 426.971,399.925 384.52,423.911 	"/>
	<polygon display="inline" opacity="0.4" fill="#EE7419" points="342.068,447.804 299.619,423.819 342.068,399.835 	"/>
	<polygon display="inline" opacity="0.4" fill="#EE7419" points="342.068,399.87 384.52,423.854 342.068,447.841 	"/>
	<polygon display="inline" opacity="0.4" fill="#EE7419" points="426.973,351.955 469.424,375.94 426.973,399.925 	"/>
	<polygon display="inline" opacity="0.4" fill="#EE7419" points="426.973,207.781 469.424,231.766 426.973,255.751 	"/>
	<polygon display="inline" opacity="0.4" fill="#FFE200" points="384.52,232.052 426.971,256.037 384.52,280.022 	"/>
	<polygon display="inline" opacity="0.4" fill="#FFE200" points="257.182,160.096 299.633,184.082 257.182,208.067 	"/>
	<polygon display="inline" opacity="0.4" fill="#FFE200" points="214.723,135.873 257.174,159.858 214.723,183.843 	"/>
	<polygon display="inline" opacity="0.4" fill="#FFE200" points="87.374,64.136 129.825,88.121 87.374,112.106 	"/>
	<polygon display="inline" opacity="0.4" fill="#FFE200" points="172.281,111.887 214.732,135.873 172.281,159.858 	"/>
	<polygon display="inline" opacity="0.5" fill="#F39800" points="183.847,743.575 141.398,719.589 183.847,695.605 	"/>
	<polygon display="inline" opacity="0.5" fill="#F39800" points="257.183,495.719 214.733,471.732 257.183,447.748 	"/>
	<polygon display="inline" opacity="0.4" fill="#FFE200" points="214.728,423.781 257.179,447.767 214.728,471.752 	"/>
	<polygon display="inline" opacity="0.4" fill="#FFE200" points="384.52,280.004 426.971,303.989 384.52,327.975 	"/>
	<polygon display="inline" opacity="0.4" fill="#EE7419" points="426.975,255.751 469.426,279.736 426.975,303.723 	"/>
	<polygon display="inline" opacity="0.4" fill="#EE7419" points="469.424,279.736 426.975,255.75 469.424,231.766 	"/>
	<polygon display="inline" opacity="0.4" fill="#EE7419" points="426.973,255.752 469.424,279.738 426.973,303.723 	"/>
	<polygon display="inline" opacity="0.4" fill="#EE7419" points="426.973,255.751 469.424,279.736 426.973,303.723 	"/>
	<polygon display="inline" opacity="0.5" fill="#F39800" points="342.07,304.117 299.621,280.131 342.07,256.147 	"/>
	<polygon display="inline" opacity="0.5" fill="#F39800" points="605.126,113.7 647.575,89.714 605.126,65.73 	"/>
	<polygon display="inline" opacity="0.5" fill="#F39800" points="621.086,109.51 663.535,85.524 621.086,61.54 	"/>
	<polygon display="inline" opacity="0.5" fill="#F39800" points="588.703,123.996 631.152,100.009 588.703,76.025 	"/>
	<polygon display="inline" opacity="0.5" fill="#F39800" points="342.07,352.069 299.621,328.083 342.07,304.1 	"/>
	<polygon display="inline" opacity="0.4" fill="#EE7419" points="342.07,255.909 384.521,279.895 342.07,303.879 	"/>
	<polygon display="inline" opacity="0.4" fill="#EE7419" points="384.52,279.893 342.07,255.908 384.52,231.923 	"/>
	<polygon display="inline" opacity="0.4" fill="#EE7419" points="342.068,255.909 384.52,279.895 342.068,303.879 	"/>
	<polygon display="inline" opacity="0.4" fill="#EE7419" points="342.068,255.861 384.52,279.846 342.068,303.832 	"/>
	<polygon display="inline" opacity="0.4" fill="#FFE200" points="299.615,280.132 342.066,304.117 299.615,328.103 	"/>
	<polygon display="inline" opacity="0.4" fill="#FFE200" points="673.603,61.54 631.151,85.525 673.603,109.51 	"/>
	<polygon display="inline" opacity="0.4" fill="#FFE200" points="719.604,31.388 677.152,55.374 719.604,79.359 	"/>
	<polygon display="inline" opacity="0.5" fill="#F39800" points="30.14,837.888 72.589,813.901 30.14,789.918 	"/>
	<polygon display="inline" opacity="0.5" fill="#F39800" points="46.1,833.697 88.549,809.711 46.1,785.728 	"/>
	<polygon display="inline" opacity="0.4" fill="#FFE200" points="98.617,785.727 56.166,809.713 98.617,833.697 	"/>
	<polygon display="inline" opacity="0.4" fill="#FFE200" points="144.618,755.576 102.167,779.561 144.618,803.547 	"/>
	<polygon display="inline" opacity="0.4" fill="#FFE200" points="299.615,328.084 342.066,352.069 299.615,376.055 	"/>
	<polygon display="inline" opacity="0.4" fill="#FFE200" points="575.021,323.084 617.472,347.069 575.021,371.055 	"/>
	<polygon display="inline" opacity="0.4" fill="#FFE200" points="584.121,200.618 626.572,224.604 584.121,248.589 	"/>
	<polygon display="inline" opacity="0.4" fill="#FFE200" points="596.246,248.589 638.697,272.574 596.246,296.56 	"/>
	<polygon display="inline" opacity="0.4" fill="#EE7419" points="342.07,303.832 384.521,327.816 342.07,351.803 	"/>
	<polygon display="inline" opacity="0.4" fill="#EE7419" points="384.52,327.816 342.07,303.83 384.52,279.846 	"/>
	<polygon display="inline" opacity="0.4" fill="#EE7419" points="342.068,303.832 384.52,327.818 342.068,351.803 	"/>
	<polygon display="inline" opacity="0.4" fill="#EE7419" points="342.068,303.832 384.52,327.816 342.068,351.803 	"/>
	<polygon display="inline" opacity="0.4" fill="#EE7419" points="426.975,303.723 469.426,327.707 426.975,351.693 	"/>
	<polygon display="inline" opacity="0.4" fill="#EE7419" points="469.424,327.707 426.975,303.721 469.424,279.736 	"/>
	<polygon display="inline" opacity="0.4" fill="#EE7419" points="631.153,512 673.604,535.986 631.153,559.971 	"/>
	<polygon display="inline" opacity="0.4" fill="#EE7419" points="384.52,328.084 426.971,352.07 384.52,376.055 	"/>
	<polygon display="inline" opacity="0.4" fill="#EE7419" points="342.072,351.879 384.523,375.865 342.072,399.85 	"/>
	<polygon display="inline" opacity="0.4" fill="#EE7419" points="342.071,351.953 384.522,375.938 342.071,399.924 	"/>
	<polygon display="inline" opacity="0.4" fill="#EE7419" points="546.252,524.267 588.703,548.251 546.252,572.237 	"/>
	<polygon display="inline" opacity="0.4" fill="#EE7419" points="574.799,535.985 617.25,559.972 574.799,583.956 	"/>
	<polygon display="inline" opacity="0.4" fill="#EE7419" points="384.52,375.957 426.971,399.943 384.52,423.928 	"/>
	<polygon display="inline" opacity="0.4" fill="#EE7419" points="342.072,399.963 384.523,423.949 342.072,447.934 	"/>
	<polygon display="inline" opacity="0.4" fill="#EE7419" points="299.62,423.772 342.071,447.757 299.62,471.743 	"/>
	<polygon display="inline" opacity="0.4" fill="#EE7419" points="299.624,423.865 342.075,447.852 299.624,471.836 	"/>
	<polygon display="inline" opacity="0.4" fill="#EE7419" points="571.554,224.604 614.005,248.59 571.554,272.574 	"/>
	<polygon display="inline" opacity="0.4" fill="#EE7419" points="299.615,471.85 257.166,447.865 299.615,423.881 	"/>
	<polygon display="inline" opacity="0.4" fill="#EE7419" points="257.167,447.818 299.618,471.803 257.167,495.789 	"/>
	<polygon display="inline" opacity="0.4" fill="#EE7419" points="257.171,447.911 299.622,471.897 257.171,495.882 	"/>
	<polygon display="inline" opacity="0.4" fill="#EE7419" points="257.183,447.758 214.733,423.771 257.183,399.787 	"/>
	<polygon display="inline" opacity="0.4" fill="#EE7419" points="257.183,447.758 214.733,423.771 257.183,399.787 	"/>
	<polygon display="inline" opacity="0.4" fill="#EE7419" points="299.63,423.91 257.181,399.924 299.63,375.939 	"/>
	<polygon display="inline" opacity="0.4" fill="#EE7419" points="299.632,423.945 257.183,399.959 299.632,375.975 	"/>
	<polygon display="inline" opacity="0.4" fill="#EE7419" points="299.621,231.942 257.172,207.957 299.621,183.972 	"/>
</g>
<g id="图层_9" display="none">
	<polygon display="inline" opacity="0.5" fill="#EC2C22" points="-211.656,97.255 -169.205,121.24 -211.656,145.226 	"/>
	<polygon display="inline" opacity="0.4" fill="#EE7419" points="-211.649,97.384 -169.198,121.37 -211.649,145.355 	"/>
	<polygon display="inline" opacity="0.5" fill="#EC2C22" points="-297.392,255.999 -254.941,279.983 -297.392,303.97 	"/>
	<polygon display="inline" opacity="0.5" fill="#EC2C22" points="135.667,182.834 178.117,206.819 135.667,230.805 	"/>
	<polygon display="inline" opacity="0.5" fill="#EC2C22" points="178.117,206.82 220.568,230.804 178.117,254.791 	"/>
	<polygon display="inline" opacity="0.5" fill="#EC2C22" points="220.568,230.805 178.117,254.79 220.568,278.776 	"/>
	<polygon display="inline" opacity="0.5" fill="#EC2C22" points="220.568,230.805 263.019,254.79 220.568,278.775 	"/>
	<polygon display="inline" opacity="0.5" fill="#EC2C22" points="263.019,254.791 220.567,278.775 263.019,302.762 	"/>
	<polygon display="inline" opacity="0.5" fill="#EC2C22" points="178.117,302.762 220.568,326.746 178.117,350.732 	"/>
	<polygon display="inline" opacity="0.5" fill="#EC2C22" points="220.568,326.748 178.117,350.732 220.568,374.719 	"/>
	<polygon display="inline" opacity="0.5" fill="#EC2C22" points="220.568,326.747 263.02,350.731 220.568,374.718 	"/>
	<polygon display="inline" opacity="0.5" fill="#EC2C22" points="263.02,350.731 220.568,374.717 263.02,398.703 	"/>
	<polygon display="inline" opacity="0.5" fill="#EC2C22" points="263.018,254.79 305.469,278.774 263.018,302.761 	"/>
	<polygon display="inline" opacity="0.5" fill="#EC2C22" points="305.469,278.777 347.92,302.762 305.469,326.748 	"/>
	<polygon display="inline" opacity="0.5" fill="#EC2C22" points="305.469,278.776 263.018,302.762 305.469,326.748 	"/>
	<polygon display="inline" opacity="0.5" fill="#EC2C22" points="178.117,254.791 135.667,278.775 178.117,302.762 	"/>
	<polygon display="inline" opacity="0.5" fill="#EC2C22" points="178.117,302.762 135.667,326.746 178.117,350.732 	"/>
	<polygon display="inline" opacity="0.5" fill="#EC2C22" points="178.117,350.732 135.667,374.717 178.117,398.703 	"/>
	<polygon display="inline" opacity="0.5" fill="#EC2C22" points="178.117,206.819 135.667,230.804 178.117,254.791 	"/>
	<polygon display="inline" opacity="0.5" fill="#EC2C22" points="135.667,230.805 178.117,254.79 135.667,278.775 	"/>
	<polygon display="inline" opacity="0.5" fill="#EC2C22" points="135.667,278.776 178.117,302.761 135.667,326.747 	"/>
	<polygon display="inline" opacity="0.5" fill="#EC2C22" points="135.667,326.747 178.117,350.731 135.667,374.718 	"/>
	<polygon display="inline" opacity="0.5" fill="#EC2C22" points="135.667,374.718 178.117,398.702 135.667,422.688 	"/>
	<polygon display="inline" opacity="0.4" fill="#EE7419" points="-248.052,256.128 -205.6,280.113 -248.052,304.099 	"/>
	<polygon display="inline" opacity="0.5" fill="#F39800" points="-198.811,366.219 -241.26,342.232 -198.811,318.249 	"/>
	<polygon display="inline" opacity="0.5" fill="#F39800" points="-148.007,401.218 -105.558,377.231 -148.007,353.248 	"/>
	<polygon display="inline" opacity="0.5" fill="#F39800" points="-105.558,500.215 -63.109,476.229 -105.558,452.245 	"/>
	<polygon display="inline" opacity="0.4" fill="#FFE200" points="94.635,110.878 52.184,134.865 94.635,158.849 	"/>
	<polygon display="inline" opacity="0.4" fill="#FFE200" points="137.087,86.894 94.636,110.88 137.087,134.864 	"/>
	<polygon display="inline" opacity="0.4" fill="#FFE200" points="94.636,158.85 52.185,182.836 94.636,206.82 	"/>
	<polygon display="inline" opacity="0.4" fill="#FFE200" points="179.538,62.908 137.087,86.895 179.538,110.879 	"/>
	<polygon display="inline" opacity="0.4" fill="#FFE200" points="-133,438.727 -175.451,462.713 -133,486.697 	"/>
	<polygon display="inline" opacity="0.4" fill="#FFE200" points="304.449,86.784 261.998,110.769 304.449,134.755 	"/>
	<polygon display="inline" opacity="0.4" fill="#FFE200" points="66.981,-98.216 109.432,-74.231 66.981,-50.245 	"/>
	<polygon display="inline" opacity="0.4" fill="#FFE200" points="94.636,110.879 137.086,134.863 94.636,158.85 	"/>
	<polygon display="inline" opacity="0.4" fill="#FFE200" points="137.087,86.894 179.538,110.878 137.087,134.864 	"/>
	<polygon display="inline" opacity="0.4" fill="#FFE200" points="52.186,134.864 94.636,158.849 52.186,182.835 	"/>
	<polygon display="inline" opacity="0.4" fill="#FFE200" points="94.636,206.821 52.185,230.807 94.636,254.792 	"/>
	<polygon display="inline" opacity="0.4" fill="#FFE200" points="52.186,182.728 94.636,206.712 52.186,230.698 	"/>
	<polygon display="inline" opacity="0.4" fill="#FFE200" points="52.186,230.807 94.636,254.791 52.186,278.777 	"/>
	<polygon display="inline" opacity="0.4" fill="#FFE200" points="428.962,401.681 471.413,377.694 428.962,353.71 	"/>
	<polygon display="inline" opacity="0.4" fill="#FFE200" points="386.512,425.775 428.963,401.789 386.512,377.805 	"/>
	<polygon display="inline" opacity="0.4" fill="#FFE200" points="428.962,353.709 471.413,329.723 428.962,305.738 	"/>
	<polygon display="inline" opacity="0.4" fill="#FFE200" points="344.061,449.761 386.512,425.774 344.061,401.79 	"/>
	<polygon display="inline" opacity="0.4" fill="#FFE200" points="428.962,401.68 386.512,377.695 428.962,353.709 	"/>
	<polygon display="inline" opacity="0.4" fill="#FFE200" points="386.511,425.665 344.061,401.681 386.511,377.694 	"/>
	<polygon display="inline" opacity="0.4" fill="#FFE200" points="471.411,377.694 428.96,353.71 471.411,329.724 	"/>
	<polygon display="inline" opacity="0.4" fill="#FFE200" points="428.962,305.738 471.413,281.752 428.962,257.768 	"/>
	<polygon display="inline" opacity="0.4" fill="#FFE200" points="471.412,329.724 428.961,305.739 471.412,281.753 	"/>
	<polygon display="inline" opacity="0.4" fill="#FFE200" points="471.412,281.752 428.961,257.768 471.412,233.781 	"/>
	<polygon display="inline" opacity="0.4" fill="#FFE200" points="220.729,134.864 263.18,158.848 220.729,182.834 	"/>
	<polygon display="inline" opacity="0.4" fill="#FFE200" points="178.117,158.849 220.567,182.833 178.117,206.82 	"/>
	<polygon display="inline" opacity="0.4" fill="#FFE200" points="262.445,110.878 304.895,134.863 262.445,158.849 	"/>
	<polygon display="inline" opacity="0.4" fill="#FFE200" points="220.731,182.834 263.181,206.819 220.731,230.805 	"/>
	<polygon display="inline" opacity="0.4" fill="#FFE200" points="263.182,206.713 305.631,230.697 263.182,254.684 	"/>
	<polygon display="inline" opacity="0.4" fill="#FFE200" points="305.47,230.698 347.919,254.683 305.47,278.669 	"/>
	<polygon display="inline" opacity="0.4" fill="#FFE200" points="347.921,254.792 390.37,278.776 347.921,302.763 	"/>
	<polygon display="inline" opacity="0.4" fill="#FFE200" points="305.634,326.747 348.083,350.731 305.634,374.718 	"/>
	<polygon display="inline" opacity="0.4" fill="#FFE200" points="347.922,302.761 390.371,326.745 347.922,350.731 	"/>
	<polygon display="inline" opacity="0.4" fill="#FFE200" points="263.241,350.731 305.69,374.716 263.241,398.702 	"/>
	<polygon display="inline" opacity="0.4" fill="#FFE200" points="262.888,110.878 220.437,134.863 262.888,158.849 	"/>
	<polygon display="inline" opacity="0.4" fill="#FFE200" points="348.083,302.763 305.633,326.747 348.083,350.733 	"/>
	<polygon display="inline" opacity="0.4" fill="#FFE200" points="305.691,326.747 263.24,350.731 305.691,374.718 	"/>
	<polygon display="inline" opacity="0.4" fill="#FFE200" points="220.729,134.757 178.278,158.742 220.729,182.728 	"/>
	<polygon display="inline" opacity="0.4" fill="#FFE200" points="178.117,158.742 135.667,182.727 178.117,206.713 	"/>
	<polygon display="inline" opacity="0.4" fill="#FFE200" points="220.73,182.728 178.28,206.712 220.73,230.698 	"/>
	<polygon display="inline" opacity="0.4" fill="#FFE200" points="263.182,206.713 220.731,230.697 263.182,254.684 	"/>
	<polygon display="inline" opacity="0.4" fill="#FFE200" points="305.632,230.698 263.182,254.683 305.632,278.669 	"/>
	<polygon display="inline" opacity="0.4" fill="#FFE200" points="390.371,278.775 347.921,302.76 390.371,326.746 	"/>
	<polygon display="inline" opacity="0.4" fill="#FFE200" points="347.92,254.792 305.47,278.776 347.92,302.763 	"/>
</g>
<g id="图层_10" display="none">
	<polygon display="inline" fill="#EC2C22" points="144.92,182.499 187.371,206.483 144.92,230.47 	"/>
	<polygon display="inline" fill="#EC2C22" points="187.371,206.485 229.822,230.47 187.371,254.456 	"/>
	<polygon display="inline" fill="#EC2C22" points="229.822,230.47 187.371,254.455 229.822,278.441 	"/>
	<polygon display="inline" fill="#EC2C22" points="229.822,230.47 272.272,254.454 229.822,278.44 	"/>
	<polygon display="inline" fill="#EC2C22" points="272.272,254.456 229.821,278.44 272.272,302.427 	"/>
	<polygon display="inline" fill="#EC2C22" points="187.371,302.427 229.822,326.411 187.371,350.397 	"/>
	<polygon display="inline" fill="#EC2C22" points="229.822,326.413 187.371,350.397 229.822,374.384 	"/>
	<polygon display="inline" fill="#EC2C22" points="229.822,326.412 272.273,350.396 229.822,374.383 	"/>
	<polygon display="inline" fill="#EC2C22" points="272.273,350.396 229.822,374.382 272.273,398.368 	"/>
	<polygon display="inline" fill="#EC2C22" points="272.271,254.455 314.723,278.439 272.271,302.426 	"/>
	<polygon display="inline" fill="#EC2C22" points="314.723,278.442 357.174,302.427 314.723,326.413 	"/>
	<polygon display="inline" fill="#EC2C22" points="314.723,278.441 272.271,302.427 314.723,326.413 	"/>
	<polygon display="inline" fill="#EC2C22" points="187.371,254.456 144.92,278.44 187.371,302.427 	"/>
	<polygon display="inline" fill="#EC2C22" points="187.371,302.427 144.92,326.411 187.371,350.397 	"/>
	<polygon display="inline" fill="#EC2C22" points="187.371,350.397 144.92,374.382 187.371,398.368 	"/>
	<polygon display="inline" fill="#EC2C22" points="187.371,206.484 144.92,230.469 187.371,254.456 	"/>
	<polygon display="inline" fill="#EC2C22" points="144.92,230.47 187.371,254.454 144.92,278.44 	"/>
	<polygon display="inline" fill="#EC2C22" points="144.92,278.441 187.371,302.426 144.92,326.412 	"/>
	<polygon display="inline" fill="#EC2C22" points="144.92,326.412 187.371,350.396 144.92,374.383 	"/>
	<polygon display="inline" fill="#EC2C22" points="144.92,374.383 187.371,398.367 144.92,422.354 	"/>
	<polygon display="inline" fill="#F49E16" points="103.889,110.543 61.438,134.53 103.889,158.514 	"/>
	<polygon display="inline" fill="#F49E16" points="146.342,86.559 103.891,110.545 146.342,134.529 	"/>
	<polygon display="inline" fill="#F49E16" points="103.891,158.515 61.439,182.501 103.891,206.485 	"/>
	<polygon display="inline" fill="#F49E16" points="188.792,62.573 146.341,86.56 188.792,110.544 	"/>
	<polygon display="inline" fill="#F49E16" points="313.703,86.449 271.252,110.434 313.703,134.42 	"/>
	<polygon display="inline" fill="#F49E16" points="103.89,110.544 146.34,134.528 103.89,158.515 	"/>
	<polygon display="inline" fill="#F49E16" points="146.341,86.559 188.791,110.543 146.341,134.529 	"/>
	<polygon display="inline" fill="#F49E16" points="61.439,134.529 103.891,158.514 61.439,182.5 	"/>
	<polygon display="inline" fill="#F49E16" points="103.89,206.485 61.438,230.472 103.89,254.456 	"/>
	<polygon display="inline" fill="#F49E16" points="61.439,182.393 103.891,206.377 61.439,230.363 	"/>
	<polygon display="inline" fill="#F49E16" points="61.439,230.472 103.891,254.456 61.439,278.442 	"/>
	<polygon display="inline" fill="#F49E16" points="438.216,401.346 480.667,377.359 438.216,353.375 	"/>
	<polygon display="inline" fill="#F49E16" points="395.766,425.44 438.217,401.454 395.766,377.47 	"/>
	<polygon display="inline" fill="#F49E16" points="438.216,353.374 480.667,329.388 438.216,305.403 	"/>
	<polygon display="inline" fill="#F49E16" points="353.314,449.426 395.766,425.439 353.314,401.455 	"/>
	<polygon display="inline" fill="#F49E16" points="438.216,401.345 395.766,377.36 438.216,353.374 	"/>
	<polygon display="inline" fill="#F49E16" points="395.765,425.33 353.314,401.346 395.765,377.359 	"/>
	<polygon display="inline" fill="#F49E16" points="480.665,377.359 438.214,353.375 480.665,329.389 	"/>
	<polygon display="inline" fill="#F49E16" points="438.216,305.403 480.667,281.417 438.216,257.433 	"/>
	<polygon display="inline" fill="#F49E16" points="480.666,329.389 438.215,305.404 480.666,281.418 	"/>
	<polygon display="inline" fill="#F49E16" points="480.666,281.417 438.215,257.433 480.666,233.446 	"/>
	<polygon display="inline" fill="#F49E16" points="229.983,134.529 272.434,158.513 229.983,182.499 	"/>
	<polygon display="inline" fill="#F49E16" points="187.371,158.514 229.821,182.499 187.371,206.485 	"/>
	<polygon display="inline" fill="#F49E16" points="271.699,110.543 314.148,134.528 271.699,158.514 	"/>
	<polygon display="inline" fill="#F49E16" points="229.984,182.499 272.435,206.483 229.984,230.47 	"/>
	<polygon display="inline" fill="#F49E16" points="272.436,206.378 314.885,230.362 272.436,254.349 	"/>
	<polygon display="inline" fill="#F49E16" points="314.724,230.363 357.173,254.348 314.724,278.334 	"/>
	<polygon display="inline" fill="#F49E16" points="357.175,254.457 399.624,278.441 357.175,302.428 	"/>
	<polygon display="inline" fill="#F49E16" points="314.888,326.412 357.337,350.396 314.888,374.383 	"/>
	<polygon display="inline" fill="#F49E16" points="357.176,302.426 399.625,326.41 357.176,350.396 	"/>
	<polygon display="inline" fill="#F49E16" points="272.495,350.396 314.944,374.381 272.495,398.367 	"/>
	<polygon display="inline" fill="#F49E16" points="272.142,110.543 229.691,134.528 272.142,158.514 	"/>
	<polygon display="inline" fill="#F49E16" points="357.337,302.428 314.887,326.412 357.337,350.398 	"/>
	<polygon display="inline" fill="#F49E16" points="314.945,326.412 272.494,350.396 314.945,374.383 	"/>
	<polygon display="inline" fill="#F49E16" points="229.982,134.422 187.532,158.407 229.982,182.394 	"/>
	<polygon display="inline" fill="#F49E16" points="187.371,158.407 144.92,182.392 187.371,206.378 	"/>
	<polygon display="inline" fill="#F49E16" points="229.984,182.393 187.533,206.377 229.984,230.363 	"/>
	<polygon display="inline" fill="#F49E16" points="272.436,206.378 229.984,230.362 272.436,254.349 	"/>
	<polygon display="inline" fill="#F49E16" points="314.886,230.363 272.436,254.348 314.886,278.334 	"/>
	<polygon display="inline" fill="#F49E16" points="399.625,278.44 357.175,302.425 399.625,326.411 	"/>
	<polygon display="inline" fill="#F49E16" points="357.174,254.457 314.724,278.441 357.174,302.428 	"/>
</g>
<g id="图层_12">
	<path fill="#F7F8F8" d="M298.19,94.43"/>
	<path fill="#C9CACA" d="M305.648,93.257"/>
	<polygon fill="#C9CACA" points="137.488,432.984 137.124,190.729 347.832,311.494 305.457,335.994 179.392,263.007 
		179.628,311.856 263.145,360.075 263.461,408.619 179.958,360.327 179.458,408.617 	"/>
	<polygon fill="#C9CACA" points="177.941,69.735 177.941,118.451 95.665,169.308 95.458,263.077 53.52,287.39 53.52,141.691 	"/>
	<polygon fill="#C9CACA" points="347.832,458.263 347.832,409.548 430.109,358.69 430.316,264.921 472.254,240.609 472.254,386.308 
			"/>
	<polygon fill="#C9CACA" points="305.949,93.257 305.158,141.691 222.093,190.661 388.76,287.827 388.76,334.994 263.412,408.417 
		263.447,360.075 348.135,311.494 138.154,190.309 	"/>
</g>
<g id="图层_13">
	<polygon fill="#EC2C22" points="130.031,426.157 129.667,183.902 340.375,304.667 298,329.167 171.934,256.18 172.171,305.029 
		255.687,353.248 256.003,401.792 172.5,353.5 172,401.79 	"/>
	<polygon fill="#EC2C22" points="170.483,62.908 170.483,111.624 88.208,162.481 88,256.25 46.063,280.563 46.063,134.864 	"/>
	<polygon fill="#4CAA79" points="340.375,451.436 340.375,402.721 422.651,351.863 422.859,258.094 464.797,233.782 464.797,379.48 
			"/>
	<polygon fill="#4CAA79" points="297.492,87.43 296.7,135.864 213.635,184.833 380.302,282 380.302,329.167 254.954,402.59 
		254.989,354.248 339.677,305.667 129.697,184.481 	"/>
</g>
</svg>
